<svg width="1871" height="735" viewBox="0 0 1871 735" fill="none" xmlns="http://www.w3.org/2000/svg">
<mask id="mask0_803_1877" style="mask-type:luminance" maskUnits="userSpaceOnUse" x="0" y="0" width="1871" height="735">
<path d="M1871 0H0V735H1871V0Z" fill="white"/>
</mask>
<g mask="url(#mask0_803_1877)">
<path d="M-144.844 506.265C-68.6912 480.724 33.5804 489.36 109.903 514.81C186.225 540.259 242.194 579.857 296.468 618.445C349.215 656.022 415.53 697.273 502.707 695.895C584.117 694.517 646.871 654.368 673.329 612.657C699.788 570.945 701.145 525.651 722.515 483.113C743.885 440.483 794.258 397.302 873.633 387.287C944.527 378.375 1015.76 398.22 1087.67 404.56C1248.29 418.8 1401.78 365.145 1524.24 306.988C1646.69 248.832 1765.07 181.303 1922.13 158.059" stroke="#FF9E73" stroke-miterlimit="10"/>
<path d="M-150.781 501.304C-75.816 475.487 24.4204 482.47 100.573 505.898C176.725 529.326 233.882 566.535 289.343 603.377C334.119 633.237 387.883 665.944 454.029 676.05C467.258 678.072 480.996 679.174 495.243 679.174C575.296 679.174 637.033 642.608 666.374 603.561C695.885 564.238 701.991 519.679 725.397 477.325C727.941 472.639 730.994 467.953 734.216 463.268C760.166 425.875 807.994 390.503 878.55 381.04C896.867 378.559 915.354 378.008 933.841 378.651C986.927 380.58 1040.18 392.616 1093.61 397.669C1150.6 403.09 1206.73 400.517 1261.01 391.789C1345.13 378.283 1424 349.986 1493.71 318.473C1506.6 312.685 1519.15 306.805 1531.36 300.833C1585.8 274.373 1639.4 246.075 1696.89 221.177C1768.13 190.307 1845.97 165.042 1931.63 155.211" stroke="#F99A78" stroke-miterlimit="10"/>
<path d="M-156.547 496.343C-82.9384 470.343 15.6019 475.579 91.5848 496.894C167.568 518.209 226.081 553.122 282.56 588.218C328.353 616.699 382.457 648.121 447.585 658.87C460.645 660.983 474.213 662.269 488.121 662.545C566.817 663.923 627.705 630.94 659.93 594.466C692.494 557.624 703.179 513.708 728.79 471.537C731.673 466.851 734.726 462.166 738.118 457.572C765.424 420.363 813.592 384.899 883.978 374.884C902.295 372.312 920.782 371.577 939.439 372.036C992.864 373.506 1046.46 385.45 1100.22 390.871C1157.38 396.659 1213.69 395.005 1268.47 386.736C1353.61 373.874 1432.65 344.933 1502.02 312.777C1514.74 306.897 1527.29 300.833 1539.33 294.769C1593.43 267.758 1646.86 239.001 1704.86 214.195C1776.78 183.417 1857.34 159.346 1941.8 152.455" stroke="#F3967C" stroke-miterlimit="10"/>
<path d="M-162.484 491.382C-90.0632 465.106 6.44189 468.781 82.2552 487.982C158.069 507.184 217.769 539.708 275.605 573.151C322.415 600.162 376.689 630.481 441.139 641.689C454.029 643.894 467.258 645.364 480.996 645.824C558.336 648.58 618.206 619.18 653.314 585.37C688.931 550.917 704.365 507.736 732.011 465.749C735.064 461.063 738.456 456.469 742.018 451.784C770.681 414.758 819.018 379.111 889.234 368.637C907.552 365.881 926.039 364.962 944.865 365.329C998.799 366.34 1052.56 378.192 1106.5 383.98C1163.65 390.136 1220.3 389.401 1275.42 381.499C1361.41 369.28 1440.62 339.696 1509.65 306.989C1522.37 301.017 1534.75 294.861 1546.79 288.706C1600.73 261.235 1653.81 232.019 1712.5 207.212C1785.09 176.526 1868.53 153.649 1951.81 149.699" stroke="#EC9281" stroke-miterlimit="10"/>
<path d="M-168.252 486.512C-97.1876 459.96 -2.5482 461.982 73.0955 479.162C148.739 496.343 209.797 526.478 268.65 558.175C316.478 583.808 371.091 612.932 434.523 624.6C447.243 626.897 460.303 628.551 473.702 629.194C549.515 633.237 608.707 607.42 646.529 576.366C685.368 544.302 705.212 501.855 735.063 460.144C738.285 455.55 741.847 450.865 745.578 446.271C775.598 409.429 824.105 373.69 894.321 362.573C912.639 359.633 931.126 358.53 950.121 358.806C1004.39 359.357 1058.5 371.117 1112.77 377.365C1170.1 383.888 1226.92 384.072 1282.55 376.538C1369.38 364.962 1448.93 334.643 1517.45 301.384C1530 295.229 1542.38 288.981 1554.42 282.734C1608.02 254.712 1660.76 225.036 1720.13 200.322C1793.4 169.727 1879.56 147.953 1961.64 147.034" stroke="#E68E85" stroke-miterlimit="10"/>
<path d="M-174.016 481.551C-104.138 454.815 -11.3647 455.091 64.1094 470.25C139.583 485.318 201.828 513.156 262.038 543.107C310.715 567.362 365.667 595.2 428.42 607.512C440.801 609.9 453.691 611.646 466.92 612.657C541.377 617.985 599.891 595.752 640.256 567.454C682.488 537.778 706.742 496.067 738.627 454.54C742.189 449.946 745.92 445.352 749.821 440.758C781.198 404.1 830.044 368.269 899.921 356.601C918.239 353.569 936.895 352.283 955.891 352.283C1010.5 352.467 1064.78 364.043 1119.39 370.658C1176.89 377.548 1233.87 378.651 1290.01 371.577C1377.87 360.643 1457.58 329.682 1525.59 295.78C1538.14 289.532 1550.36 283.193 1562.4 276.762C1615.82 248.28 1668.23 218.145 1728.27 193.431C1802.22 162.837 1891.26 142.348 1971.99 144.37" stroke="#E08B8A" stroke-miterlimit="10"/>
<path d="M-179.951 476.59C-111.431 449.579 -20.5227 448.293 54.7818 461.247C130.086 474.293 193.688 499.743 254.915 527.948C304.61 550.733 359.901 577.469 421.637 590.239C433.848 592.72 446.399 594.649 459.459 595.844C532.558 602.551 590.563 583.808 633.303 558.175C678.927 530.888 707.421 489.912 741.511 448.568C745.242 443.974 749.143 439.381 753.214 434.879C785.948 398.404 834.963 362.389 904.84 350.17C923.158 346.954 941.814 345.484 960.98 345.393C1016.1 345.117 1070.54 356.601 1125.5 363.584C1183.16 370.842 1240.32 372.771 1296.8 366.156C1385.5 355.866 1465.38 324.261 1533.23 289.716C1545.61 283.377 1557.82 276.946 1569.69 270.423C1622.78 241.39 1675.02 210.796 1735.56 186.081C1810.19 155.579 1901.95 136.193 1981.49 141.246" stroke="#DA878E" stroke-miterlimit="10"/>
<path d="M-185.719 471.629C-118.386 444.342 -29.5128 441.402 45.6221 452.335C120.757 463.268 185.546 486.42 247.96 512.88C298.672 534.287 354.133 559.829 415.191 573.059C427.233 575.631 439.614 577.744 452.334 579.122C524.077 587.207 581.573 572.048 626.688 549.079C675.873 524.181 708.607 483.94 744.733 442.872C748.803 438.37 752.874 433.776 757.114 429.274C791.204 392.984 840.39 356.877 910.267 344.106C928.584 340.799 947.241 339.145 966.576 338.869C1022.04 338.134 1076.82 349.527 1132.11 356.877C1189.94 364.502 1247.27 367.35 1304.26 361.195C1393.81 351.548 1474.03 319.3 1541.37 284.204C1553.75 277.772 1565.79 271.157 1577.66 264.542C1630.58 235.05 1682.48 203.997 1743.7 179.282C1819.18 148.872 1913.65 130.68 1992.01 138.673" stroke="#D48393" stroke-miterlimit="10"/>
<path d="M-191.654 466.667C-125.508 439.196 -38.5013 434.511 36.464 443.423C111.429 452.334 177.575 473.098 241.177 497.813C292.737 517.749 348.706 542.188 408.916 555.969C420.788 558.726 432.83 560.931 445.211 562.584C515.597 572.048 572.585 560.471 620.074 540.167C672.821 517.658 709.625 478.059 747.786 437.267C752.026 432.765 756.266 428.263 760.676 423.761C796.123 387.746 845.478 351.364 915.186 338.134C933.503 334.643 952.16 332.805 971.664 332.438C1027.46 331.243 1082.59 342.636 1138.05 350.261C1196.05 358.254 1253.55 362.021 1310.87 356.233C1401.27 347.229 1481.67 314.338 1548.66 278.599C1560.87 272.076 1572.91 265.369 1584.79 258.662C1637.36 228.619 1689.09 197.106 1750.83 172.483C1826.98 142.164 1924.16 125.076 2001.33 136.193" stroke="#CE7F97" stroke-miterlimit="10"/>
<path d="M-197.424 461.707C-132.635 433.96 -47.4933 427.713 27.3024 434.512C102.098 441.31 169.431 459.777 234.22 482.746C286.798 501.305 342.937 524.457 402.298 538.79C414.001 541.638 425.873 544.026 437.915 545.864C506.944 556.705 563.762 548.712 613.287 531.072C669.765 510.952 710.64 472.088 750.836 431.48C755.246 426.978 759.825 422.476 764.404 417.974C801.039 382.143 850.903 345.668 920.441 331.795C938.758 328.12 957.584 326.099 977.089 325.548C1033.23 323.986 1088.69 335.195 1144.49 343.28C1202.49 351.64 1260.33 356.326 1318.16 350.905C1409.58 342.545 1490.14 309.01 1556.63 272.628C1568.84 266.013 1580.71 259.122 1592.58 252.323C1644.99 221.729 1696.38 189.848 1758.8 165.226C1835.63 134.907 1935.69 119.105 2011.51 133.162" stroke="#C87B9C" stroke-miterlimit="10"/>
<path d="M-203.359 456.745C-139.758 428.723 -56.6513 420.822 17.9747 425.507C92.6008 430.193 161.291 446.363 227.267 467.586C280.862 484.767 337.34 506.725 395.854 521.608C407.387 524.548 418.92 527.029 430.793 529.234C498.465 541.453 554.943 537.043 606.673 521.976C666.882 504.428 711.658 466.116 754.059 425.783C758.808 421.281 763.387 416.871 768.306 412.369C806.297 376.722 856.331 340.155 925.699 325.731C943.847 321.964 962.842 319.759 982.516 319.024C1039.16 317.003 1094.79 328.12 1150.76 336.572C1208.94 345.3 1266.94 350.905 1325.29 345.943C1417.55 338.226 1498.28 303.957 1564.6 267.115C1576.81 260.316 1588.51 253.425 1600.22 246.443C1652.29 215.389 1703.51 182.957 1766.43 158.427C1843.94 128.2 1946.72 113.592 2021.35 130.588" stroke="#C177A0" stroke-miterlimit="10"/>
<path d="M-209.127 451.784C-146.882 423.578 -65.6414 413.931 8.98468 416.595C83.4411 419.26 153.318 433.041 220.482 452.519C275.094 468.229 331.742 489.085 389.408 504.428C400.602 507.46 412.135 510.124 423.668 512.513C489.814 526.019 546.292 525.467 600.057 512.88C664.168 497.905 712.844 460.144 757.281 419.995C762.199 415.585 767.118 411.083 772.036 406.673C811.384 371.209 861.587 334.459 930.956 319.484C949.103 315.533 968.099 313.144 987.943 312.317C1044.93 309.837 1100.9 320.862 1157.21 329.682C1215.55 338.777 1273.73 345.3 1332.41 340.707C1425.52 333.632 1506.59 298.72 1572.4 261.235C1584.44 254.344 1596.15 247.362 1607.85 240.287C1659.75 208.682 1710.46 175.883 1774.23 151.352C1852.42 121.217 1957.91 107.712 2031.52 127.74" stroke="#BB73A4" stroke-miterlimit="10"/>
<path d="M-214.895 446.822C-153.837 418.341 -74.4618 407.04 -0.174947 407.683C74.1119 408.235 145.346 419.719 213.527 437.359C268.988 451.692 326.145 471.261 382.962 487.155C393.986 490.279 405.18 493.127 416.544 495.7C481.333 510.583 537.642 513.799 593.442 503.693C661.453 491.382 713.861 454.08 760.502 414.115C765.59 409.705 770.848 405.295 775.936 400.885C816.641 365.605 867.014 328.763 936.382 313.236C954.53 309.193 973.526 306.621 993.539 305.61C1050.87 302.67 1107.17 313.603 1163.65 322.791C1222.17 332.254 1280.51 339.696 1339.7 335.562C1433.83 329.13 1515.07 293.575 1580.37 255.447C1592.41 248.464 1604.12 241.298 1615.65 234.132C1667.21 202.067 1717.75 168.717 1782.03 144.278C1860.9 114.235 1969.28 101.923 2041.53 124.892" stroke="#B56FA9" stroke-miterlimit="10"/>
<path d="M-220.83 441.953C-161.129 413.196 -83.6199 400.333 -9.33304 398.771C64.7842 397.301 137.205 406.397 206.743 422.291C263.222 435.246 320.548 453.529 376.518 470.066C387.372 473.282 398.397 476.314 409.421 479.162C472.853 495.424 528.992 502.498 586.997 494.689C658.91 485.134 715.218 448.2 763.895 408.51C769.322 404.1 774.58 399.69 779.838 395.372C821.9 360.276 872.612 323.25 941.641 307.264C959.788 303.038 978.784 300.281 998.967 299.179C1056.8 295.871 1113.28 306.621 1170.1 316.176C1228.78 326.006 1287.3 334.367 1346.83 330.6C1441.8 324.812 1523.22 288.613 1588.17 249.842C1600.05 242.768 1611.75 235.509 1623.11 228.159C1674.33 195.544 1724.71 161.826 1789.66 137.387C1869.38 107.344 1980.3 96.2269 2051.36 122.228" stroke="#AF6BAD" stroke-miterlimit="10"/>
<path d="M-226.596 436.992C-168.082 407.96 -92.608 393.443 -18.4907 389.86C55.4569 386.277 129.235 393.076 199.791 407.225C257.287 418.709 314.952 435.89 370.074 452.887C380.759 456.194 391.444 459.41 402.298 462.442C464.374 480.082 520.174 491.015 580.383 485.594C656.027 478.795 716.237 442.229 767.118 402.723C772.715 398.405 778.312 393.995 783.739 389.585C827.158 354.764 878.04 317.555 947.069 300.925C965.216 296.515 984.382 293.667 1004.56 292.289C1062.74 288.522 1119.56 299.18 1176.54 309.194C1235.4 319.392 1294.08 328.58 1354.12 325.272C1449.95 320.127 1531.7 283.285 1596.32 243.963C1608.19 236.797 1619.72 229.355 1631.08 222.005C1682.14 188.93 1732.17 154.66 1797.64 130.313C1878.03 100.362 1991.83 90.4396 2061.71 119.38" stroke="#A968B2" stroke-miterlimit="10"/>
<path d="M-232.529 432.031C-175.373 402.814 -101.594 386.553 -27.8164 380.948C45.9616 375.344 121.096 379.754 192.839 392.157C251.183 402.263 309.358 418.158 363.462 435.706C373.977 439.105 384.323 442.504 394.839 445.812C455.387 464.922 511.018 479.714 573.432 476.59C652.807 472.639 717.087 436.349 770.004 397.026C775.771 392.708 781.537 388.298 787.134 383.98C831.91 349.343 882.961 312.042 951.99 294.861C970.138 290.36 989.303 287.236 1009.66 285.766C1068.17 281.54 1125.33 292.197 1182.65 302.487C1241.51 313.053 1300.53 323.159 1360.91 320.311C1457.58 315.809 1539.5 278.324 1603.78 238.358C1615.48 231.008 1627.02 223.566 1638.38 216.033C1689.09 182.406 1738.96 147.77 1804.93 123.423C1886 93.5633 2002.52 84.7433 2071.21 116.716" stroke="#A364B6" stroke-miterlimit="10"/>
<path d="M-238.293 427.069C-182.323 397.577 -110.581 379.753 -36.8026 372.036C36.8059 364.318 113.128 366.431 186.058 377.089C245.42 385.817 303.764 400.517 357.189 418.616C367.535 422.108 377.711 425.691 387.888 429.182C447.08 449.67 502.371 468.413 566.99 467.586C650.096 466.575 718.278 430.468 773.399 391.33C779.505 387.011 785.441 382.693 791.208 378.375C837.34 343.922 888.561 306.437 957.42 288.705C975.568 284.02 994.733 280.712 1015.09 279.15C1074.11 274.465 1131.43 285.03 1188.93 295.688C1247.95 306.621 1307.15 317.646 1368.03 315.165C1465.73 311.215 1547.81 273.086 1611.59 232.57C1623.29 225.128 1634.65 217.594 1646.02 209.876C1696.56 175.791 1746.08 140.603 1812.74 116.348C1894.49 86.5802 2013.89 78.9546 2081.22 113.867" stroke="#9C60BB" stroke-miterlimit="10"/>
<path d="M-244.232 422.108C-189.62 392.34 -119.743 372.863 -46.1341 363.032C27.3047 353.202 104.984 353.018 178.931 361.93C239.311 369.188 297.994 382.785 350.402 401.344C360.408 404.927 370.415 408.602 380.422 412.369C438.257 434.235 493.209 456.929 560.033 458.307C646.701 460.144 719.122 424.221 776.279 385.45C782.554 381.132 788.66 376.905 794.596 372.587C841.916 338.318 893.646 300.741 962.335 282.458C980.483 277.68 999.648 274.189 1020.17 272.444C1079.53 267.39 1137.2 277.772 1195.03 288.797C1254.23 300.098 1313.59 312.042 1374.98 310.02C1473.52 306.713 1555.95 267.942 1619.21 226.782C1630.75 219.248 1642.11 211.53 1653.3 203.813C1703.51 169.176 1752.69 133.62 1820.03 109.274C1902.45 79.5061 2024.57 73.1667 2090.72 111.019" stroke="#965CBF" stroke-miterlimit="10"/>
<path d="M-250 417.147C-99.7303 332.805 165.362 318.105 344.125 384.255C411.458 409.153 472.346 445.077 553.587 449.395C653.654 454.723 737.099 410.072 798.666 367.075C860.232 324.077 926.717 275.108 1025.94 265.92C1146.69 254.712 1260.16 308.275 1382.45 304.967C1481.83 302.303 1564.43 262.889 1627.52 221.177C1690.62 179.466 1745.23 132.059 1828.34 102.475C1911.44 72.7992 2036.44 67.5623 2101.4 108.447" stroke="#9058C4" stroke-miterlimit="10"/>
<path d="M-241.008 434.879C-93.9605 348.792 169.944 330.876 351.591 394.27C419.942 418.158 482.187 453.07 563.427 456.378C643.82 459.685 712.51 431.02 767.123 397.026C780.521 388.666 792.902 380.029 804.605 371.485C839.713 345.76 876.009 318.014 919.597 297.158C949.956 282.734 984.047 271.617 1023.56 266.931C1062.4 262.338 1100.9 264.543 1139.57 269.596C1217.93 279.61 1296.8 301.476 1378.89 300.098C1466.4 298.628 1541.03 270.882 1601.75 238.174C1610.06 233.764 1618.03 229.263 1625.66 224.669C1674.51 195.82 1719.11 163.848 1774.41 137.479C1792.21 129.027 1811.04 121.126 1831.56 114.143C1915.52 85.4781 2038.48 78.5875 2102.25 114.511" stroke="#8C5BC7" stroke-miterlimit="10"/>
<path d="M-231.854 452.518C-88.0287 364.686 174.689 343.463 359.049 404.284C428.418 427.161 492.189 461.063 573.43 463.36C653.653 465.656 721.494 436.256 774.581 401.803C787.471 393.351 799.682 384.623 810.876 375.895C844.627 349.71 879.227 321.688 921.289 300.19C950.461 285.306 983.194 273.546 1021.69 268.033C1059.35 262.521 1097 263.623 1135.5 267.574C1213.52 275.475 1293.57 295.871 1375.83 295.32C1463.18 294.677 1537.97 269.963 1599.71 240.563C1608.02 236.612 1616.16 232.478 1624.13 228.435C1674.16 202.343 1720.47 173.126 1777.11 148.412C1795.26 140.419 1814.43 132.977 1835.12 126.178C1919.92 98.5239 2040.85 89.8876 2103.6 120.85" stroke="#895ECA" stroke-miterlimit="10"/>
<path d="M-222.861 470.158C-82.259 380.58 179.441 356.05 366.515 414.298C436.731 436.165 502.029 469.056 583.27 470.342C663.493 471.72 730.317 441.585 781.877 406.673C794.428 398.128 806.13 389.216 816.985 380.305C849.549 353.753 882.453 325.271 922.649 303.13C950.464 287.786 982.18 275.475 1019.32 269.044C1055.96 262.613 1092.76 262.613 1130.92 265.461C1208.43 271.157 1289.67 290.083 1372.27 290.359C1459.62 290.543 1534.58 268.952 1597.34 242.768C1605.82 239.185 1614.13 235.601 1622.27 231.926C1673.66 208.59 1721.49 182.13 1779.32 158.978C1797.98 151.536 1817.48 144.37 1838.34 137.938C1924 111.295 2042.89 101.005 2104.45 126.913" stroke="#8560CE" stroke-miterlimit="10"/>
<path d="M-213.703 487.89C-76.4929 396.659 184.189 368.82 374.147 424.313C445.381 445.26 512.035 477.049 593.276 477.325C673.329 477.692 739.475 446.914 789.169 411.45C801.381 402.722 812.744 393.719 823.09 384.715C854.467 357.795 885.505 328.947 924.175 306.162C950.803 290.359 981.332 277.497 1017.29 270.147C1052.74 262.889 1088.86 261.694 1126.68 263.44C1203.85 267.023 1286.28 284.479 1368.88 285.582C1456.06 286.592 1531.19 268.125 1595.13 245.065C1603.78 241.941 1612.26 238.725 1620.57 235.51C1673.15 215.022 1722.84 191.226 1781.87 169.635C1800.86 162.653 1820.71 155.946 1841.74 149.699C1928.23 124.065 2045.09 112.03 2105.64 132.977" stroke="#8263D1" stroke-miterlimit="10"/>
<path d="M-204.717 505.53C-70.7291 412.553 188.766 381.407 381.607 434.327C453.858 454.264 521.87 485.134 603.11 484.399C682.994 483.756 748.292 452.243 796.46 416.32C808.332 407.5 819.187 398.312 829.193 389.217C859.383 361.838 888.725 332.714 925.529 309.194C950.97 293.024 980.142 279.426 1014.91 271.157C1049.17 262.98 1084.62 260.684 1122.1 261.327C1199.1 262.705 1282.38 278.875 1365.31 280.712C1452.32 282.642 1527.8 267.115 1592.75 247.362C1601.57 244.697 1610.22 241.941 1618.7 239.093C1672.47 221.361 1723.86 200.322 1784.24 180.293C1803.57 173.862 1823.76 167.522 1845.13 161.459C1932.47 136.836 2047.29 123.147 2106.83 139.041" stroke="#7E66D4" stroke-miterlimit="10"/>
<path d="M-195.727 523.262C-64.9613 428.538 193.347 394.085 389.07 444.433C462.17 463.359 531.708 493.218 613.118 491.473C693.002 489.911 757.282 457.663 803.924 421.28C815.287 412.277 825.803 402.997 835.47 393.718C864.472 365.972 892.118 336.48 927.226 312.225C951.31 295.595 979.464 281.447 1013.05 272.259C1046.29 263.255 1080.89 259.672 1118.03 259.305C1194.69 258.478 1279.16 273.27 1362.26 275.842C1449.27 278.598 1524.74 266.195 1590.89 249.566C1599.88 247.361 1608.7 244.972 1617.35 242.675C1672.3 227.7 1725.39 209.417 1786.95 191.042C1806.8 185.162 1827.32 179.098 1848.69 173.401C1936.88 149.79 2049.67 134.355 2108.01 145.38" stroke="#7B69D7" stroke-miterlimit="10"/>
<path d="M-186.566 540.902C-59.0237 444.433 198.097 406.765 396.704 454.356C470.821 472.272 541.716 501.12 623.127 498.364C702.841 495.792 766.273 462.9 811.218 425.967C822.242 416.871 832.419 407.408 841.577 398.037C869.223 369.923 895.172 340.063 928.585 315.165C951.481 298.077 978.448 283.285 1010.67 273.27C1042.73 263.348 1076.65 258.662 1113.62 257.192C1189.95 254.068 1275.43 267.574 1358.87 270.973C1445.71 274.557 1521.52 265.277 1588.69 251.863C1597.84 250.026 1606.83 248.188 1615.65 246.259C1671.79 234.04 1726.57 218.513 1789.5 201.7C1809.68 196.279 1830.54 190.675 1852.08 185.162C1941.12 162.561 2051.88 145.38 2109.2 151.444" stroke="#776BDA" stroke-miterlimit="10"/>
<path d="M-177.578 558.542C-53.2579 460.328 202.676 419.352 404.166 464.371C479.131 481.276 551.552 509.114 632.963 505.347C712.677 501.764 775.092 468.137 818.51 430.836C829.195 421.557 838.863 412.002 847.682 402.447C874.141 373.874 898.394 343.739 930.11 318.106C951.82 300.649 977.43 285.214 1008.64 274.281C1039.51 263.44 1072.75 257.56 1109.38 255.079C1185.37 249.751 1272.03 261.786 1355.65 266.012C1442.49 270.422 1518.3 264.175 1586.48 254.069C1595.81 252.691 1604.97 251.312 1613.96 249.751C1671.28 240.287 1727.76 227.517 1791.87 212.266C1812.39 207.396 1833.59 202.159 1855.47 196.923C1945.36 175.332 2054.08 156.498 2110.22 157.508" stroke="#746EDD" stroke-miterlimit="10"/>
<path d="M-168.42 576.274C-47.3222 476.314 207.424 432.03 411.628 474.385C487.611 490.279 561.559 517.107 642.969 512.329C722.514 507.735 784.25 473.466 825.972 435.613C836.318 426.242 845.477 416.595 853.957 406.857C879.228 377.916 901.786 347.414 931.636 321.137C951.989 303.222 976.581 287.143 1006.6 275.383C1036.45 263.623 1068.85 256.641 1105.14 253.058C1180.79 245.524 1268.47 256.182 1352.43 261.235C1439.09 266.472 1515.08 263.348 1584.44 256.365C1593.94 255.447 1603.27 254.436 1612.43 253.425C1671.11 246.718 1729.12 236.704 1794.58 223.107C1815.62 218.697 1836.99 213.919 1859.03 208.866C1949.6 188.194 2056.45 167.706 2111.58 163.755" stroke="#7171E1" stroke-miterlimit="10"/>
<path d="M-159.432 593.914C-41.726 492.209 212.003 444.709 419.09 484.399C496.091 499.283 571.395 525.1 652.805 519.312C732.35 513.799 793.068 478.795 833.265 440.391C843.271 430.836 852.091 421.097 860.062 411.267C884.146 381.959 904.838 351.089 933.162 324.077C952.327 305.794 975.733 289.073 1004.4 276.394C1033.06 263.807 1064.61 255.539 1100.73 250.853C1176.04 241.114 1264.91 250.394 1348.86 256.274C1435.36 262.337 1511.68 262.337 1582.07 258.571C1591.74 258.111 1601.23 257.56 1610.56 256.917C1670.43 252.966 1730.3 245.708 1796.96 233.672C1818.33 229.814 1840.21 225.312 1862.43 220.534C1953.84 200.873 2058.66 178.731 2112.59 169.819" stroke="#6D74E4" stroke-miterlimit="10"/>
<path d="M-150.443 611.646C-35.7906 508.195 216.751 457.388 426.552 494.413C504.4 508.286 581.231 533.185 662.642 526.386C742.017 519.863 801.887 484.123 840.387 445.352C849.885 435.705 858.366 425.783 865.998 415.768C888.894 386.001 907.89 354.855 934.518 327.201C952.496 308.458 974.545 291.094 1002.19 277.588C1029.67 264.083 1060.53 254.711 1096.32 248.923C1171.29 236.888 1261.18 244.789 1345.47 251.496C1431.97 258.386 1508.29 261.418 1579.86 260.959C1589.53 260.867 1599.37 260.775 1608.87 260.591C1669.92 259.397 1731.49 254.895 1799.33 244.421C1821.04 241.022 1843.26 236.98 1865.65 232.478C1957.91 213.827 2060.69 189.94 2113.61 176.066" stroke="#6A77E7" stroke-miterlimit="10"/>
<path d="M-141.285 629.286C-30.0245 524.089 221.499 469.975 434.184 504.428C513.05 517.291 591.238 541.178 672.648 533.369C752.023 525.835 810.876 489.452 847.85 450.13C857.008 440.299 864.98 430.285 872.273 420.179C893.812 390.044 911.282 358.531 936.044 330.141C952.835 310.939 973.696 292.932 999.985 278.507C1026.44 264.083 1056.46 253.517 1091.91 246.719C1166.54 232.386 1257.61 239.001 1342.08 246.535C1428.41 254.252 1505.07 260.408 1577.66 263.072C1587.5 263.44 1597.5 263.807 1607.34 263.991C1669.58 265.553 1732.85 263.807 1802.05 254.896C1824.26 252.047 1846.65 248.372 1869.38 244.054C1962.49 226.414 2063.24 200.873 2115.14 181.947" stroke="#6679EA" stroke-miterlimit="10"/>
<path d="M-132.293 646.926C-24.2548 540.076 226.082 482.654 441.649 514.442C521.533 526.294 601.078 549.171 682.658 540.351C761.863 531.899 819.868 494.781 855.315 454.999C864.135 445.077 871.767 434.879 878.551 424.681C898.904 394.178 914.677 362.297 937.743 333.173C953.347 313.604 972.851 294.953 998.122 279.61C1023.39 264.267 1052.74 252.599 1087.84 244.697C1162.13 228.16 1254.23 233.397 1339.03 241.666C1425.36 250.118 1502.02 259.397 1575.8 265.369C1585.8 266.196 1595.81 266.931 1605.99 267.666C1669.42 271.984 1734.38 272.995 1804.76 265.737C1827.32 263.348 1850.05 260.041 1872.94 255.998C1966.9 239.369 2065.61 212.082 2116.33 188.194" stroke="#637CED" stroke-miterlimit="10"/>
<path d="M-123.133 664.658C-18.4867 555.97 230.662 495.333 449.113 524.457C529.845 535.298 610.916 557.164 692.496 547.334C771.701 537.871 828.858 500.11 862.61 459.777C871.09 449.671 878.213 439.381 884.658 428.999C903.824 398.037 917.901 365.881 939.101 336.113C953.348 316.084 971.665 296.791 995.919 280.621C1020 264.359 1048.67 251.496 1083.43 242.584C1157.38 223.75 1250.67 227.517 1335.64 236.796C1421.8 245.984 1498.8 258.479 1573.42 267.666C1583.6 268.953 1593.78 270.147 1604.12 271.249C1668.74 278.324 1735.4 282.091 1807.14 276.394C1830.03 274.557 1853.27 271.617 1876.34 267.85C1971.15 252.231 2067.82 223.291 2117.51 194.442" stroke="#5F7FF0" stroke-miterlimit="10"/>
<path d="M-114.148 682.298C-12.5552 571.864 235.407 507.919 456.571 534.471C538.321 544.302 620.749 565.157 702.329 554.316C781.364 543.842 837.673 505.347 869.728 464.554C877.7 454.356 884.484 443.882 890.59 433.409C908.568 402.079 920.949 369.555 940.453 339.053C953.513 318.657 970.643 298.628 993.54 281.631C1016.44 264.45 1044.42 250.394 1078.85 240.471C1152.46 219.34 1246.93 221.82 1332.07 231.927C1418.23 241.941 1495.23 257.56 1571.04 269.871C1581.39 271.525 1591.74 273.179 1602.25 274.74C1668.06 284.663 1736.41 291.094 1809.51 286.96C1832.91 285.582 1856.32 283.101 1879.55 279.518C1975.21 264.91 2069.85 234.224 2118.36 200.414" stroke="#5C82F3" stroke-miterlimit="10"/>
<path d="M-105.156 700.03C-6.78553 587.85 239.989 520.598 464.207 544.577C546.974 553.489 630.928 573.334 712.508 561.482C791.544 550.09 846.835 510.859 877.364 469.607C884.996 459.225 891.441 448.66 897.038 438.002C913.829 406.305 924.514 373.414 942.153 342.268C954.025 321.413 969.968 300.833 991.677 282.917C1013.39 264.91 1040.52 249.658 1074.78 238.633C1148.05 215.205 1243.54 216.4 1329.02 227.241C1415.01 238.082 1492.35 256.733 1569.18 272.352C1579.7 274.465 1590.21 276.578 1600.9 278.599C1668.06 291.278 1738.11 300.465 1812.22 297.985C1835.97 297.158 1859.71 295.045 1883.12 291.737C1979.62 278.14 2072.23 245.8 2119.72 206.937" stroke="#5884F7" stroke-miterlimit="10"/>
<path d="M-95.998 717.67C-1.0194 603.745 244.738 533.277 471.669 554.592C555.284 562.493 640.765 581.327 722.345 568.465C801.211 556.062 855.654 516.188 884.656 474.385C891.949 463.911 897.886 453.254 903.143 442.412C918.577 410.348 927.736 377.089 943.679 345.209C954.364 323.986 968.95 302.671 989.472 283.928C1010.16 265.002 1036.45 248.556 1070.54 236.521C1143.3 210.796 1240.15 210.704 1325.63 222.372C1411.62 234.04 1488.96 255.814 1566.98 274.557C1577.66 277.129 1588.35 279.61 1599.2 282.091C1667.55 297.526 1739.29 309.469 1814.77 308.551C1838.85 308.275 1862.94 306.437 1886.68 303.406C1984.03 290.819 2074.6 256.733 2121.07 212.909" stroke="#5587FA" stroke-miterlimit="10"/>
<path d="M-87.0098 735.31C4.74637 619.731 249.316 545.955 479.131 564.514C563.763 571.405 650.601 589.228 732.181 575.355C811.047 561.942 864.473 521.333 891.949 479.162C919.425 436.992 926.039 391.697 945.035 348.148C964.031 304.6 998.8 260.316 1066.13 234.407C1138.55 206.477 1236.42 204.915 1322.24 217.502C1408.06 229.997 1485.57 254.895 1564.77 276.853C1643.81 298.811 1728.27 318.565 1817.14 319.208C1942.48 320.218 2065.78 279.702 2121.92 219.064" stroke="#518AFD" stroke-miterlimit="10"/>
<g filter="url(#filter0_i_803_1877)">
<rect x="736" y="190" width="400" height="354" rx="20" fill="black"/>
<path d="M778.818 254V230.727H792.864V233.227H781.636V241.091H792.136V243.591H781.636V251.5H793.045V254H778.818ZM800.261 243.5V254H797.58V236.545H800.17V239.273H800.398C800.807 238.386 801.428 237.674 802.261 237.136C803.095 236.591 804.17 236.318 805.489 236.318C806.67 236.318 807.705 236.561 808.591 237.045C809.477 237.523 810.167 238.25 810.659 239.227C811.152 240.197 811.398 241.424 811.398 242.909V254H808.716V243.091C808.716 241.72 808.36 240.652 807.648 239.886C806.936 239.114 805.958 238.727 804.716 238.727C803.86 238.727 803.095 238.913 802.42 239.284C801.754 239.655 801.227 240.197 800.841 240.909C800.455 241.621 800.261 242.485 800.261 243.5ZM823.889 236.545V238.818H814.844V236.545H823.889ZM817.48 232.364H820.162V249C820.162 249.758 820.272 250.326 820.491 250.705C820.719 251.076 821.007 251.326 821.355 251.455C821.711 251.576 822.086 251.636 822.48 251.636C822.776 251.636 823.018 251.621 823.207 251.591C823.397 251.553 823.548 251.523 823.662 251.5L824.207 253.909C824.026 253.977 823.772 254.045 823.446 254.114C823.12 254.189 822.707 254.227 822.207 254.227C821.45 254.227 820.707 254.064 819.98 253.739C819.26 253.413 818.662 252.917 818.185 252.25C817.715 251.583 817.48 250.742 817.48 249.727V232.364ZM835.054 254.364C833.372 254.364 831.921 253.992 830.702 253.25C829.49 252.5 828.554 251.455 827.895 250.114C827.243 248.765 826.918 247.197 826.918 245.409C826.918 243.621 827.243 242.045 827.895 240.682C828.554 239.311 829.471 238.242 830.645 237.477C831.827 236.705 833.205 236.318 834.781 236.318C835.69 236.318 836.588 236.47 837.474 236.773C838.361 237.076 839.168 237.568 839.895 238.25C840.622 238.924 841.202 239.818 841.634 240.932C842.065 242.045 842.281 243.417 842.281 245.045V246.182H828.827V243.864H839.554C839.554 242.879 839.357 242 838.963 241.227C838.577 240.455 838.024 239.845 837.304 239.398C836.592 238.951 835.751 238.727 834.781 238.727C833.713 238.727 832.789 238.992 832.009 239.523C831.236 240.045 830.641 240.727 830.224 241.568C829.808 242.409 829.599 243.311 829.599 244.273V245.818C829.599 247.136 829.827 248.254 830.281 249.17C830.743 250.08 831.384 250.773 832.202 251.25C833.02 251.72 833.971 251.955 835.054 251.955C835.759 251.955 836.395 251.856 836.963 251.659C837.539 251.455 838.035 251.152 838.452 250.75C838.868 250.341 839.19 249.833 839.418 249.227L842.009 249.955C841.736 250.833 841.277 251.606 840.634 252.273C839.99 252.932 839.194 253.447 838.247 253.818C837.3 254.182 836.236 254.364 835.054 254.364ZM846.361 254V236.545H848.952V239.182H849.134C849.452 238.318 850.027 237.617 850.861 237.08C851.694 236.542 852.634 236.273 853.679 236.273C853.876 236.273 854.122 236.277 854.418 236.284C854.713 236.292 854.937 236.303 855.088 236.318V239.045C854.997 239.023 854.789 238.989 854.463 238.943C854.145 238.89 853.808 238.864 853.452 238.864C852.603 238.864 851.846 239.042 851.179 239.398C850.52 239.746 849.997 240.231 849.611 240.852C849.232 241.466 849.043 242.167 849.043 242.955V254H846.361ZM886.358 238H883.54C883.373 237.189 883.081 236.477 882.665 235.864C882.256 235.25 881.756 234.735 881.165 234.318C880.581 233.894 879.934 233.576 879.222 233.364C878.509 233.152 877.767 233.045 876.994 233.045C875.585 233.045 874.309 233.402 873.165 234.114C872.028 234.826 871.123 235.875 870.449 237.261C869.782 238.648 869.449 240.348 869.449 242.364C869.449 244.379 869.782 246.08 870.449 247.466C871.123 248.852 872.028 249.902 873.165 250.614C874.309 251.326 875.585 251.682 876.994 251.682C877.767 251.682 878.509 251.576 879.222 251.364C879.934 251.152 880.581 250.837 881.165 250.42C881.756 249.996 882.256 249.477 882.665 248.864C883.081 248.242 883.373 247.53 883.54 246.727H886.358C886.146 247.917 885.759 248.981 885.199 249.92C884.638 250.86 883.941 251.659 883.108 252.318C882.275 252.97 881.339 253.466 880.301 253.807C879.271 254.148 878.169 254.318 876.994 254.318C875.009 254.318 873.244 253.833 871.699 252.864C870.153 251.894 868.938 250.515 868.051 248.727C867.165 246.939 866.722 244.818 866.722 242.364C866.722 239.909 867.165 237.788 868.051 236C868.938 234.212 870.153 232.833 871.699 231.864C873.244 230.894 875.009 230.409 876.994 230.409C878.169 230.409 879.271 230.58 880.301 230.92C881.339 231.261 882.275 231.761 883.108 232.42C883.941 233.072 884.638 233.867 885.199 234.807C885.759 235.739 886.146 236.803 886.358 238ZM890.548 254V236.545H893.139V239.182H893.321C893.639 238.318 894.215 237.617 895.048 237.08C895.882 236.542 896.821 236.273 897.866 236.273C898.063 236.273 898.31 236.277 898.605 236.284C898.901 236.292 899.124 236.303 899.276 236.318V239.045C899.185 239.023 898.976 238.989 898.651 238.943C898.332 238.89 897.995 238.864 897.639 238.864C896.791 238.864 896.033 239.042 895.366 239.398C894.707 239.746 894.185 240.231 893.798 240.852C893.42 241.466 893.23 242.167 893.23 242.955V254H890.548ZM909.241 254.364C907.56 254.364 906.109 253.992 904.889 253.25C903.677 252.5 902.741 251.455 902.082 250.114C901.431 248.765 901.105 247.197 901.105 245.409C901.105 243.621 901.431 242.045 902.082 240.682C902.741 239.311 903.658 238.242 904.832 237.477C906.014 236.705 907.393 236.318 908.969 236.318C909.878 236.318 910.776 236.47 911.662 236.773C912.548 237.076 913.355 237.568 914.082 238.25C914.81 238.924 915.389 239.818 915.821 240.932C916.253 242.045 916.469 243.417 916.469 245.045V246.182H903.014V243.864H913.741C913.741 242.879 913.545 242 913.151 241.227C912.764 240.455 912.211 239.845 911.491 239.398C910.779 238.951 909.938 238.727 908.969 238.727C907.901 238.727 906.976 238.992 906.196 239.523C905.423 240.045 904.829 240.727 904.412 241.568C903.995 242.409 903.787 243.311 903.787 244.273V245.818C903.787 247.136 904.014 248.254 904.469 249.17C904.931 250.08 905.571 250.773 906.389 251.25C907.207 251.72 908.158 251.955 909.241 251.955C909.946 251.955 910.582 251.856 911.151 251.659C911.726 251.455 912.223 251.152 912.639 250.75C913.056 250.341 913.378 249.833 913.605 249.227L916.196 249.955C915.923 250.833 915.465 251.606 914.821 252.273C914.177 252.932 913.382 253.447 912.435 253.818C911.488 254.182 910.423 254.364 909.241 254.364ZM927.139 254.364C925.685 254.364 924.401 253.996 923.287 253.261C922.173 252.519 921.302 251.473 920.673 250.125C920.045 248.769 919.73 247.167 919.73 245.318C919.73 243.485 920.045 241.894 920.673 240.545C921.302 239.197 922.177 238.155 923.298 237.42C924.42 236.686 925.715 236.318 927.185 236.318C928.321 236.318 929.219 236.508 929.878 236.886C930.545 237.258 931.052 237.682 931.401 238.159C931.757 238.629 932.033 239.015 932.23 239.318H932.457V230.727H935.139V254H932.548V251.318H932.23C932.033 251.636 931.753 252.038 931.389 252.523C931.026 253 930.507 253.428 929.832 253.807C929.158 254.178 928.26 254.364 927.139 254.364ZM927.503 251.955C928.579 251.955 929.488 251.674 930.23 251.114C930.973 250.545 931.537 249.761 931.923 248.761C932.31 247.754 932.503 246.591 932.503 245.273C932.503 243.97 932.313 242.83 931.935 241.852C931.556 240.867 930.995 240.102 930.253 239.557C929.51 239.004 928.594 238.727 927.503 238.727C926.366 238.727 925.42 239.019 924.662 239.602C923.912 240.178 923.348 240.962 922.969 241.955C922.598 242.939 922.412 244.045 922.412 245.273C922.412 246.515 922.601 247.644 922.98 248.659C923.366 249.667 923.935 250.47 924.685 251.068C925.442 251.659 926.382 251.955 927.503 251.955ZM947.741 254.364C946.06 254.364 944.609 253.992 943.389 253.25C942.177 252.5 941.241 251.455 940.582 250.114C939.931 248.765 939.605 247.197 939.605 245.409C939.605 243.621 939.931 242.045 940.582 240.682C941.241 239.311 942.158 238.242 943.332 237.477C944.514 236.705 945.893 236.318 947.469 236.318C948.378 236.318 949.276 236.47 950.162 236.773C951.048 237.076 951.855 237.568 952.582 238.25C953.31 238.924 953.889 239.818 954.321 240.932C954.753 242.045 954.969 243.417 954.969 245.045V246.182H941.514V243.864H952.241C952.241 242.879 952.045 242 951.651 241.227C951.264 240.455 950.711 239.845 949.991 239.398C949.279 238.951 948.438 238.727 947.469 238.727C946.401 238.727 945.476 238.992 944.696 239.523C943.923 240.045 943.329 240.727 942.912 241.568C942.495 242.409 942.287 243.311 942.287 244.273V245.818C942.287 247.136 942.514 248.254 942.969 249.17C943.431 250.08 944.071 250.773 944.889 251.25C945.707 251.72 946.658 251.955 947.741 251.955C948.446 251.955 949.082 251.856 949.651 251.659C950.226 251.455 950.723 251.152 951.139 250.75C951.556 250.341 951.878 249.833 952.105 249.227L954.696 249.955C954.423 250.833 953.965 251.606 953.321 252.273C952.677 252.932 951.882 253.447 950.935 253.818C949.988 254.182 948.923 254.364 947.741 254.364ZM961.73 243.5V254H959.048V236.545H961.639V239.273H961.866C962.276 238.386 962.897 237.674 963.73 237.136C964.563 236.591 965.639 236.318 966.957 236.318C968.139 236.318 969.173 236.561 970.06 237.045C970.946 237.523 971.635 238.25 972.128 239.227C972.62 240.197 972.866 241.424 972.866 242.909V254H970.185V243.091C970.185 241.72 969.829 240.652 969.116 239.886C968.404 239.114 967.427 238.727 966.185 238.727C965.329 238.727 964.563 238.913 963.889 239.284C963.223 239.655 962.696 240.197 962.31 240.909C961.923 241.621 961.73 242.485 961.73 243.5ZM985.358 236.545V238.818H976.312V236.545H985.358ZM978.949 232.364H981.631V249C981.631 249.758 981.741 250.326 981.96 250.705C982.188 251.076 982.475 251.326 982.824 251.455C983.18 251.576 983.555 251.636 983.949 251.636C984.244 251.636 984.487 251.621 984.676 251.591C984.866 251.553 985.017 251.523 985.131 251.5L985.676 253.909C985.494 253.977 985.241 254.045 984.915 254.114C984.589 254.189 984.176 254.227 983.676 254.227C982.919 254.227 982.176 254.064 981.449 253.739C980.729 253.413 980.131 252.917 979.653 252.25C979.184 251.583 978.949 250.742 978.949 249.727V232.364ZM989.392 254V236.545H992.074V254H989.392ZM990.756 233.636C990.233 233.636 989.782 233.458 989.403 233.102C989.032 232.746 988.847 232.318 988.847 231.818C988.847 231.318 989.032 230.89 989.403 230.534C989.782 230.178 990.233 230 990.756 230C991.278 230 991.725 230.178 992.097 230.534C992.475 230.89 992.665 231.318 992.665 231.818C992.665 232.318 992.475 232.746 992.097 233.102C991.725 233.458 991.278 233.636 990.756 233.636ZM1002.12 254.409C1001.02 254.409 1000.01 254.201 999.111 253.784C998.209 253.36 997.493 252.75 996.963 251.955C996.433 251.152 996.168 250.182 996.168 249.045C996.168 248.045 996.365 247.235 996.759 246.614C997.152 245.985 997.679 245.492 998.338 245.136C998.997 244.78 999.724 244.515 1000.52 244.341C1001.32 244.159 1002.13 244.015 1002.94 243.909C1004 243.773 1004.86 243.67 1005.52 243.602C1006.19 243.527 1006.67 243.402 1006.97 243.227C1007.29 243.053 1007.44 242.75 1007.44 242.318V242.227C1007.44 241.106 1007.13 240.235 1006.52 239.614C1005.91 238.992 1004.99 238.682 1003.76 238.682C1002.48 238.682 1001.47 238.962 1000.75 239.523C1000.02 240.083 999.509 240.682 999.213 241.318L996.668 240.409C997.122 239.348 997.728 238.523 998.486 237.932C999.251 237.333 1000.08 236.917 1000.99 236.682C1001.89 236.439 1002.79 236.318 1003.67 236.318C1004.23 236.318 1004.87 236.386 1005.6 236.523C1006.33 236.652 1007.04 236.92 1007.72 237.33C1008.41 237.739 1008.99 238.356 1009.44 239.182C1009.89 240.008 1010.12 241.114 1010.12 242.5V254H1007.44V251.636H1007.3C1007.12 252.015 1006.82 252.42 1006.39 252.852C1005.97 253.284 1005.41 253.652 1004.7 253.955C1004 254.258 1003.14 254.409 1002.12 254.409ZM1002.53 252C1003.59 252 1004.49 251.792 1005.21 251.375C1005.95 250.958 1006.5 250.42 1006.87 249.761C1007.25 249.102 1007.44 248.409 1007.44 247.682V245.227C1007.33 245.364 1007.08 245.489 1006.69 245.602C1006.31 245.708 1005.87 245.803 1005.37 245.886C1004.88 245.962 1004.4 246.03 1003.93 246.091C1003.47 246.144 1003.09 246.189 1002.8 246.227C1002.11 246.318 1001.46 246.466 1000.85 246.67C1000.25 246.867 999.766 247.167 999.395 247.568C999.031 247.962 998.849 248.5 998.849 249.182C998.849 250.114 999.194 250.818 999.884 251.295C1000.58 251.765 1001.46 252 1002.53 252ZM1017.7 230.727V254H1015.02V230.727H1017.7ZM1034.97 240.455L1032.57 241.136C1032.41 240.735 1032.19 240.345 1031.89 239.966C1031.61 239.58 1031.21 239.261 1030.71 239.011C1030.21 238.761 1029.57 238.636 1028.79 238.636C1027.72 238.636 1026.83 238.883 1026.12 239.375C1025.42 239.86 1025.07 240.477 1025.07 241.227C1025.07 241.894 1025.31 242.42 1025.79 242.807C1026.28 243.193 1027.04 243.515 1028.07 243.773L1030.66 244.409C1032.22 244.788 1033.38 245.367 1034.14 246.148C1034.91 246.92 1035.29 247.917 1035.29 249.136C1035.29 250.136 1035 251.03 1034.43 251.818C1033.86 252.606 1033.07 253.227 1032.04 253.682C1031.02 254.136 1029.83 254.364 1028.47 254.364C1026.69 254.364 1025.22 253.977 1024.05 253.205C1022.89 252.432 1022.15 251.303 1021.84 249.818L1024.38 249.182C1024.63 250.121 1025.08 250.826 1025.76 251.295C1026.44 251.765 1027.33 252 1028.43 252C1029.68 252 1030.67 251.735 1031.41 251.205C1032.15 250.667 1032.52 250.023 1032.52 249.273C1032.52 248.667 1032.31 248.159 1031.88 247.75C1031.46 247.333 1030.81 247.023 1029.93 246.818L1027.02 246.136C1025.42 245.758 1024.25 245.17 1023.5 244.375C1022.75 243.572 1022.38 242.568 1022.38 241.364C1022.38 240.379 1022.66 239.508 1023.21 238.75C1023.77 237.992 1024.54 237.398 1025.5 236.966C1026.47 236.534 1027.57 236.318 1028.79 236.318C1030.52 236.318 1031.88 236.697 1032.86 237.455C1033.85 238.212 1034.56 239.212 1034.97 240.455Z" fill="white"/>
<path d="M777.585 298V284.909H785.486V286.315H779.17V290.739H785.077V292.145H779.17V296.594H785.588V298H777.585ZM788.138 298V288.182H789.596V289.716H789.724C789.928 289.192 790.259 288.785 790.714 288.495C791.17 288.201 791.718 288.054 792.357 288.054C793.005 288.054 793.544 288.201 793.974 288.495C794.409 288.785 794.748 289.192 794.991 289.716H795.093C795.344 289.209 795.722 288.806 796.224 288.508C796.727 288.205 797.33 288.054 798.033 288.054C798.911 288.054 799.629 288.329 800.188 288.879C800.746 289.424 801.025 290.274 801.025 291.429V298H799.516V291.429C799.516 290.705 799.318 290.187 798.922 289.876C798.526 289.565 798.059 289.409 797.522 289.409C796.832 289.409 796.297 289.618 795.918 290.036C795.538 290.449 795.349 290.973 795.349 291.608V298H793.815V291.276C793.815 290.717 793.634 290.268 793.271 289.927C792.909 289.582 792.442 289.409 791.871 289.409C791.479 289.409 791.113 289.513 790.772 289.722C790.435 289.931 790.163 290.221 789.954 290.592C789.749 290.958 789.647 291.382 789.647 291.864V298H788.138ZM806.672 298.23C806.05 298.23 805.485 298.113 804.978 297.879C804.471 297.64 804.069 297.297 803.77 296.849C803.472 296.398 803.323 295.852 803.323 295.213C803.323 294.651 803.434 294.195 803.655 293.845C803.877 293.491 804.173 293.214 804.544 293.014C804.914 292.814 805.324 292.665 805.771 292.567C806.223 292.464 806.676 292.384 807.132 292.324C807.729 292.247 808.213 292.19 808.583 292.151C808.958 292.109 809.231 292.038 809.402 291.94C809.576 291.842 809.664 291.672 809.664 291.429V291.378C809.664 290.747 809.491 290.257 809.146 289.908C808.805 289.558 808.287 289.384 807.593 289.384C806.873 289.384 806.308 289.541 805.899 289.857C805.49 290.172 805.202 290.509 805.036 290.866L803.604 290.355C803.86 289.759 804.201 289.294 804.627 288.962C805.057 288.625 805.526 288.391 806.033 288.259C806.544 288.122 807.047 288.054 807.542 288.054C807.857 288.054 808.219 288.092 808.628 288.169C809.042 288.241 809.44 288.393 809.824 288.623C810.211 288.853 810.533 289.2 810.789 289.665C811.044 290.129 811.172 290.751 811.172 291.531V298H809.664V296.67H809.587C809.485 296.884 809.314 297.112 809.076 297.354C808.837 297.597 808.52 297.804 808.123 297.974C807.727 298.145 807.243 298.23 806.672 298.23ZM806.902 296.875C807.499 296.875 808.002 296.758 808.411 296.523C808.824 296.289 809.135 295.987 809.344 295.616C809.557 295.245 809.664 294.855 809.664 294.446V293.065C809.6 293.142 809.459 293.212 809.242 293.276C809.029 293.336 808.782 293.389 808.5 293.436C808.223 293.479 807.953 293.517 807.689 293.551C807.429 293.581 807.218 293.607 807.056 293.628C806.664 293.679 806.297 293.762 805.956 293.877C805.62 293.988 805.347 294.156 805.138 294.382C804.934 294.604 804.831 294.906 804.831 295.29C804.831 295.814 805.025 296.21 805.413 296.479C805.805 296.743 806.301 296.875 806.902 296.875ZM813.926 298V288.182H815.434V298H813.926ZM814.693 286.545C814.399 286.545 814.145 286.445 813.932 286.245C813.723 286.045 813.619 285.804 813.619 285.523C813.619 285.241 813.723 285.001 813.932 284.8C814.145 284.6 814.399 284.5 814.693 284.5C814.987 284.5 815.238 284.6 815.447 284.8C815.66 285.001 815.767 285.241 815.767 285.523C815.767 285.804 815.66 286.045 815.447 286.245C815.238 286.445 814.987 286.545 814.693 286.545ZM819.706 284.909V298H818.197V284.909H819.706ZM823.568 298.102C823.253 298.102 822.982 297.989 822.756 297.763C822.53 297.538 822.417 297.267 822.417 296.952C822.417 296.636 822.53 296.366 822.756 296.14C822.982 295.914 823.253 295.801 823.568 295.801C823.883 295.801 824.154 295.914 824.38 296.14C824.606 296.366 824.719 296.636 824.719 296.952C824.719 297.161 824.665 297.352 824.559 297.527C824.456 297.702 824.318 297.842 824.143 297.949C823.973 298.051 823.781 298.102 823.568 298.102ZM823.568 290.815C823.253 290.815 822.982 290.702 822.756 290.477C822.53 290.251 822.417 289.98 822.417 289.665C822.417 289.349 822.53 289.079 822.756 288.853C822.982 288.627 823.253 288.514 823.568 288.514C823.883 288.514 824.154 288.627 824.38 288.853C824.606 289.079 824.719 289.349 824.719 289.665C824.719 289.874 824.665 290.065 824.559 290.24C824.456 290.415 824.318 290.555 824.143 290.662C823.973 290.764 823.781 290.815 823.568 290.815Z" fill="white"/>
<path d="M777.585 357V343.909H782.009C783.036 343.909 783.875 344.094 784.527 344.465C785.183 344.832 785.669 345.328 785.984 345.955C786.3 346.581 786.457 347.28 786.457 348.051C786.457 348.822 786.3 349.523 785.984 350.154C785.673 350.785 785.192 351.288 784.54 351.663C783.888 352.033 783.053 352.219 782.034 352.219H778.864V350.812H781.983C782.686 350.812 783.251 350.691 783.677 350.448C784.103 350.205 784.412 349.877 784.604 349.464C784.8 349.046 784.898 348.575 784.898 348.051C784.898 347.527 784.8 347.058 784.604 346.645C784.412 346.232 784.101 345.908 783.67 345.673C783.24 345.435 782.669 345.315 781.957 345.315H779.17V357H777.585ZM791.696 357.23C791.074 357.23 790.509 357.113 790.002 356.879C789.495 356.64 789.092 356.297 788.794 355.849C788.495 355.398 788.346 354.852 788.346 354.213C788.346 353.651 788.457 353.195 788.679 352.845C788.9 352.491 789.196 352.214 789.567 352.014C789.938 351.814 790.347 351.665 790.794 351.567C791.246 351.464 791.7 351.384 792.156 351.324C792.752 351.247 793.236 351.19 793.607 351.151C793.982 351.109 794.255 351.038 794.425 350.94C794.6 350.842 794.687 350.672 794.687 350.429V350.378C794.687 349.747 794.515 349.257 794.169 348.908C793.828 348.558 793.311 348.384 792.616 348.384C791.896 348.384 791.331 348.541 790.922 348.857C790.513 349.172 790.225 349.509 790.059 349.866L788.627 349.355C788.883 348.759 789.224 348.294 789.65 347.962C790.081 347.625 790.549 347.391 791.056 347.259C791.568 347.122 792.071 347.054 792.565 347.054C792.88 347.054 793.243 347.092 793.652 347.169C794.065 347.241 794.463 347.393 794.847 347.623C795.235 347.853 795.556 348.2 795.812 348.665C796.068 349.129 796.196 349.751 796.196 350.531V357H794.687V355.67H794.61C794.508 355.884 794.338 356.112 794.099 356.354C793.86 356.597 793.543 356.804 793.147 356.974C792.75 357.145 792.267 357.23 791.696 357.23ZM791.926 355.875C792.522 355.875 793.025 355.758 793.434 355.523C793.848 355.289 794.159 354.987 794.368 354.616C794.581 354.245 794.687 353.855 794.687 353.446V352.065C794.623 352.142 794.483 352.212 794.265 352.276C794.052 352.336 793.805 352.389 793.524 352.436C793.247 352.479 792.976 352.517 792.712 352.551C792.452 352.581 792.241 352.607 792.079 352.628C791.687 352.679 791.321 352.762 790.98 352.877C790.643 352.988 790.37 353.156 790.162 353.382C789.957 353.604 789.855 353.906 789.855 354.29C789.855 354.814 790.049 355.21 790.436 355.479C790.828 355.743 791.325 355.875 791.926 355.875ZM805.904 349.381L804.548 349.764C804.463 349.538 804.338 349.319 804.171 349.106C804.009 348.888 803.788 348.71 803.507 348.569C803.225 348.428 802.865 348.358 802.426 348.358C801.825 348.358 801.325 348.496 800.924 348.773C800.528 349.046 800.33 349.393 800.33 349.815C800.33 350.19 800.466 350.487 800.739 350.704C801.012 350.921 801.438 351.102 802.017 351.247L803.475 351.605C804.352 351.818 805.007 352.144 805.437 352.583C805.867 353.018 806.083 353.578 806.083 354.264C806.083 354.827 805.921 355.33 805.597 355.773C805.277 356.216 804.83 356.565 804.254 356.821C803.679 357.077 803.01 357.205 802.247 357.205C801.246 357.205 800.417 356.987 799.761 356.553C799.105 356.118 798.689 355.483 798.514 354.648L799.946 354.29C800.083 354.818 800.34 355.214 800.72 355.479C801.103 355.743 801.604 355.875 802.222 355.875C802.925 355.875 803.483 355.726 803.896 355.428C804.314 355.125 804.523 354.763 804.523 354.341C804.523 354 804.404 353.714 804.165 353.484C803.926 353.25 803.56 353.075 803.066 352.96L801.429 352.577C800.53 352.364 799.869 352.033 799.448 351.586C799.03 351.134 798.821 350.57 798.821 349.892C798.821 349.338 798.977 348.848 799.288 348.422C799.603 347.996 800.031 347.661 800.573 347.418C801.118 347.175 801.736 347.054 802.426 347.054C803.398 347.054 804.161 347.267 804.715 347.693C805.273 348.119 805.669 348.682 805.904 349.381ZM815.308 349.381L813.953 349.764C813.868 349.538 813.742 349.319 813.576 349.106C813.414 348.888 813.192 348.71 812.911 348.569C812.63 348.428 812.27 348.358 811.831 348.358C811.23 348.358 810.729 348.496 810.328 348.773C809.932 349.046 809.734 349.393 809.734 349.815C809.734 350.19 809.87 350.487 810.143 350.704C810.416 350.921 810.842 351.102 811.422 351.247L812.879 351.605C813.757 351.818 814.411 352.144 814.841 352.583C815.272 353.018 815.487 353.578 815.487 354.264C815.487 354.827 815.325 355.33 815.001 355.773C814.681 356.216 814.234 356.565 813.659 356.821C813.083 357.077 812.414 357.205 811.652 357.205C810.65 357.205 809.821 356.987 809.165 356.553C808.509 356.118 808.093 355.483 807.919 354.648L809.35 354.29C809.487 354.818 809.745 355.214 810.124 355.479C810.507 355.743 811.008 355.875 811.626 355.875C812.329 355.875 812.887 355.726 813.301 355.428C813.718 355.125 813.927 354.763 813.927 354.341C813.927 354 813.808 353.714 813.569 353.484C813.331 353.25 812.964 353.075 812.47 352.96L810.833 352.577C809.934 352.364 809.274 352.033 808.852 351.586C808.434 351.134 808.225 350.57 808.225 349.892C808.225 349.338 808.381 348.848 808.692 348.422C809.007 347.996 809.436 347.661 809.977 347.418C810.522 347.175 811.14 347.054 811.831 347.054C812.802 347.054 813.565 347.267 814.119 347.693C814.677 348.119 815.074 348.682 815.308 349.381ZM819.982 357L816.991 347.182H818.576L820.698 354.699H820.8L822.897 347.182H824.508L826.579 354.673H826.681L828.803 347.182H830.388L827.397 357H825.914L823.766 349.457H823.613L821.465 357H819.982ZM836.037 357.205C835.151 357.205 834.373 356.994 833.704 356.572C833.039 356.15 832.52 355.56 832.145 354.801C831.774 354.043 831.588 353.156 831.588 352.142C831.588 351.119 831.774 350.227 832.145 349.464C832.52 348.701 833.039 348.109 833.704 347.687C834.373 347.265 835.151 347.054 836.037 347.054C836.924 347.054 837.699 347.265 838.364 347.687C839.033 348.109 839.553 348.701 839.924 349.464C840.299 350.227 840.486 351.119 840.486 352.142C840.486 353.156 840.299 354.043 839.924 354.801C839.553 355.56 839.033 356.15 838.364 356.572C837.699 356.994 836.924 357.205 836.037 357.205ZM836.037 355.849C836.711 355.849 837.265 355.677 837.699 355.332C838.134 354.987 838.456 354.533 838.664 353.97C838.873 353.408 838.978 352.798 838.978 352.142C838.978 351.486 838.873 350.874 838.664 350.308C838.456 349.741 838.134 349.283 837.699 348.933C837.265 348.584 836.711 348.409 836.037 348.409C835.364 348.409 834.81 348.584 834.375 348.933C833.941 349.283 833.619 349.741 833.41 350.308C833.201 350.874 833.097 351.486 833.097 352.142C833.097 352.798 833.201 353.408 833.41 353.97C833.619 354.533 833.941 354.987 834.375 355.332C834.81 355.677 835.364 355.849 836.037 355.849ZM842.789 357V347.182H844.246V348.665H844.349C844.528 348.179 844.851 347.785 845.32 347.482C845.789 347.18 846.317 347.028 846.905 347.028C847.016 347.028 847.155 347.031 847.321 347.035C847.487 347.039 847.613 347.045 847.698 347.054V348.588C847.647 348.575 847.53 348.556 847.346 348.531C847.167 348.501 846.978 348.486 846.778 348.486C846.3 348.486 845.874 348.586 845.499 348.786C845.128 348.982 844.834 349.255 844.617 349.604C844.404 349.95 844.297 350.344 844.297 350.787V357H842.789ZM852.895 357.205C852.077 357.205 851.354 356.998 850.728 356.585C850.101 356.167 849.611 355.579 849.258 354.82C848.904 354.058 848.727 353.156 848.727 352.116C848.727 351.085 848.904 350.19 849.258 349.432C849.611 348.673 850.104 348.087 850.734 347.674C851.365 347.261 852.094 347.054 852.92 347.054C853.559 347.054 854.064 347.161 854.435 347.374C854.81 347.582 855.096 347.821 855.292 348.089C855.492 348.354 855.648 348.571 855.758 348.741H855.886V343.909H857.395V357H855.937V355.491H855.758C855.648 355.67 855.49 355.896 855.285 356.169C855.081 356.437 854.789 356.678 854.41 356.891C854.03 357.1 853.525 357.205 852.895 357.205ZM853.099 355.849C853.704 355.849 854.216 355.692 854.633 355.376C855.051 355.057 855.368 354.616 855.586 354.053C855.803 353.487 855.912 352.832 855.912 352.091C855.912 351.358 855.805 350.717 855.592 350.167C855.379 349.613 855.064 349.183 854.646 348.876C854.229 348.565 853.713 348.409 853.099 348.409C852.46 348.409 851.927 348.573 851.501 348.901C851.079 349.225 850.762 349.666 850.549 350.224C850.34 350.778 850.236 351.401 850.236 352.091C850.236 352.79 850.342 353.425 850.555 353.996C850.773 354.562 851.092 355.014 851.514 355.351C851.94 355.683 852.469 355.849 853.099 355.849ZM861.466 357.102C861.151 357.102 860.881 356.989 860.655 356.763C860.429 356.538 860.316 356.267 860.316 355.952C860.316 355.636 860.429 355.366 860.655 355.14C860.881 354.914 861.151 354.801 861.466 354.801C861.782 354.801 862.052 354.914 862.278 355.14C862.504 355.366 862.617 355.636 862.617 355.952C862.617 356.161 862.564 356.352 862.457 356.527C862.355 356.702 862.216 356.842 862.042 356.949C861.871 357.051 861.68 357.102 861.466 357.102ZM861.466 349.815C861.151 349.815 860.881 349.702 860.655 349.477C860.429 349.251 860.316 348.98 860.316 348.665C860.316 348.349 860.429 348.079 860.655 347.853C860.881 347.627 861.151 347.514 861.466 347.514C861.782 347.514 862.052 347.627 862.278 347.853C862.504 348.079 862.617 348.349 862.617 348.665C862.617 348.874 862.564 349.065 862.457 349.24C862.355 349.415 862.216 349.555 862.042 349.662C861.871 349.764 861.68 349.815 861.466 349.815Z" fill="white"/>
<g clip-path="url(#clip0_803_1877)">
<path d="M1082.95 415.333L1074.01 406.393L1076.37 404.037L1089.33 417L1076.37 429.963L1074.01 427.607L1082.95 418.667H1062.67V415.333H1082.95Z" fill="white"/>
</g>
</g>
</g>
<defs>
<filter id="filter0_i_803_1877" x="736" y="190" width="400" height="358" filterUnits="userSpaceOnUse" color-interpolation-filters="sRGB">
<feFlood flood-opacity="0" result="BackgroundImageFix"/>
<feBlend mode="normal" in="SourceGraphic" in2="BackgroundImageFix" result="shape"/>
<feColorMatrix in="SourceAlpha" type="matrix" values="0 0 0 0 0 0 0 0 0 0 0 0 0 0 0 0 0 0 127 0" result="hardAlpha"/>
<feOffset dy="4"/>
<feGaussianBlur stdDeviation="2"/>
<feComposite in2="hardAlpha" operator="arithmetic" k2="-1" k3="1"/>
<feColorMatrix type="matrix" values="0 0 0 0 0 0 0 0 0 0 0 0 0 0 0 0 0 0 0.25 0"/>
<feBlend mode="normal" in2="shape" result="effect1_innerShadow_803_1877"/>
</filter>
<clipPath id="clip0_803_1877">
<rect width="40" height="40" fill="white" transform="translate(1056 397)"/>
</clipPath>
</defs>
</svg>
